<svg width="24" height="24" viewBox="0 0 24 24" fill="none" xmlns="http://www.w3.org/2000/svg">
<path d="M8.97009 12.1767L9.14687 11.9999L8.97009 11.8232L0.840912 3.69404C0.0530294 2.90615 0.0530294 1.62878 0.840912 0.840895C1.62877 0.0530351 2.90617 0.0530351 3.69403 0.840894L11.8232 8.97008L12 9.14685L12.1767 8.97008L20.3061 0.840942L20.1293 0.664163L20.3061 0.840933C21.0939 0.0530725 22.3711 0.0530402 23.1592 0.840956C23.947 1.62882 23.947 2.90621 23.1592 3.69406L15.0298 11.8232L14.8531 11.9999L15.0298 12.1767L23.1592 20.306C23.947 21.0939 23.947 22.3713 23.1592 23.1591C22.3713 23.947 21.0939 23.947 20.3061 23.1591L12.1767 15.0298L12 14.853L11.8232 15.0298L3.69404 23.1591C2.90617 23.947 1.62877 23.947 0.840907 23.1591C0.0530317 22.3713 0.0530317 21.0939 0.840905 20.306L0.664135 20.1293L0.840913 20.306L8.97009 12.1767Z" fill="#1D2327" stroke="white" stroke-width="0.5"/>
</svg>
