<svg width="24" height="25" viewBox="0 0 24 25" fill="none" xmlns="http://www.w3.org/2000/svg">
<path fill-rule="evenodd" clip-rule="evenodd" d="M24 12.5C24 19.1274 18.6274 24.5 12 24.5C5.37258 24.5 0 19.1274 0 12.5C0 5.87258 5.37258 0.5 12 0.5C18.6274 0.5 24 5.87258 24 12.5ZM12 19.4C12.497 19.4 12.9 18.997 12.9 18.5V11.3C12.9 10.803 12.497 10.4 12 10.4C11.503 10.4 11.1 10.803 11.1 11.3V18.5C11.1 18.997 11.503 19.4 12 19.4ZM12 6.5C12.6628 6.5 13.2 7.03726 13.2 7.7C13.2 8.36274 12.6628 8.9 12 8.9C11.3372 8.9 10.8 8.36274 10.8 7.7C10.8 7.03726 11.3372 6.5 12 6.5Z" fill="#111111"/>
</svg>
