<svg width="16" height="16" viewBox="0 0 16 16" fill="none" xmlns="http://www.w3.org/2000/svg">
<path d="M13.7591 0.927567C15.3139 1.78904 15.9586 3.80336 15.1496 5.38694C15.0105 5.66565 13.974 6.83117 12.8363 7.98402C10.485 10.3911 10.0805 10.6571 8.68996 10.6571C8.01998 10.6571 7.74187 10.5938 7.1983 10.2897C6.43983 9.88432 5.90891 9.3269 5.90891 8.94684C5.90891 8.66813 6.43983 8.0727 6.69266 8.0727C6.78115 8.0727 7.1351 8.26273 7.48905 8.50344C8.10847 8.93417 8.39921 9.02285 9.11976 8.98485C9.63804 8.94684 13.5568 5.07023 13.7717 4.38612C14.1636 3.06857 12.9753 1.83971 11.6353 2.18177C11.4457 2.21977 10.7631 2.78986 10.0678 3.4613L8.85429 4.66483L8.2728 4.50013C7.83036 4.38612 7.55226 4.38612 7.17302 4.48747C6.89492 4.55081 6.66738 4.60148 6.66738 4.58881C6.66738 4.5128 10.2448 1.02892 10.4344 0.927567C11.4331 0.357476 12.7098 0.357476 13.7591 0.927567ZM8.77845 5.74166C9.49899 6.08372 10.0805 6.67915 10.0805 7.07188C10.0805 7.33792 9.54956 7.94601 9.32202 7.94601C9.10712 7.94601 8.50034 7.60396 8.32337 7.38859C8.08318 7.09721 7.37528 6.94519 6.84435 7.05921C6.46512 7.14789 5.98475 7.55328 4.42989 9.11153C3.3554 10.1757 2.39467 11.2019 2.29354 11.3919C1.72469 12.4814 2.60957 13.9003 3.86104 13.9003C4.46782 13.9003 4.708 13.7483 5.97211 12.4941L7.10982 11.3666L7.61546 11.5059C7.89357 11.5819 8.39921 11.6199 8.75316 11.5819L9.38522 11.5059L7.6281 13.2162C6.65473 14.1663 5.6308 15.0531 5.3527 15.2052C4.58159 15.6106 3.15314 15.5979 2.31882 15.1672C1.56035 14.7871 0.827166 13.8876 0.599625 13.0895C0.410008 12.3801 0.498496 11.3032 0.801884 10.7205C1.06735 10.1757 4.59423 6.46378 5.27685 5.98237C6.35135 5.23492 7.55226 5.1589 8.77845 5.74166Z" fill="#2271B1"/>
</svg>
